<svg width="22" height="22" viewBox="0 0 22 22" fill="none" xmlns="http://www.w3.org/2000/svg">
<path d="M14.8415 1.8335H7.15982C3.82315 1.8335 1.83398 3.82266 1.83398 7.15933V14.8318C1.83398 18.1777 3.82315 20.1668 7.15982 20.1668H14.8323C18.169 20.1668 20.1582 18.1777 20.1582 14.841V7.15933C20.1673 3.82266 18.1782 1.8335 14.8415 1.8335ZM11.0007 14.5568C9.03898 14.5568 7.44398 12.9618 7.44398 11.0002C7.44398 9.0385 9.03898 7.4435 11.0007 7.4435C12.9623 7.4435 14.5573 9.0385 14.5573 11.0002C14.5573 12.9618 12.9623 14.5568 11.0007 14.5568ZM16.4273 6.30683C16.3815 6.41683 16.3173 6.51766 16.2348 6.60933C16.1432 6.69183 16.0423 6.756 15.9323 6.80183C15.7655 6.87264 15.5814 6.89215 15.4034 6.85786C15.2254 6.82358 15.0617 6.73705 14.9332 6.60933C14.8507 6.51766 14.7865 6.41683 14.7407 6.30683C14.6936 6.19666 14.6686 6.0783 14.6673 5.9585C14.6673 5.83933 14.6948 5.72016 14.7407 5.61016C14.7865 5.491 14.8507 5.39933 14.9332 5.30766C15.144 5.09683 15.4648 4.996 15.7582 5.06016C15.8223 5.06933 15.8773 5.08766 15.9323 5.11516C15.9873 5.1335 16.0423 5.161 16.0973 5.19766C16.1432 5.22516 16.189 5.271 16.2348 5.30766C16.3173 5.39933 16.3815 5.491 16.4273 5.61016C16.4732 5.72016 16.5007 5.83933 16.5007 5.9585C16.5007 6.07766 16.4732 6.19683 16.4273 6.30683Z" fill="#C6C7C7"/>
</svg>
