<svg width="37" height="36" viewBox="0 0 37 36" fill="none" xmlns="http://www.w3.org/2000/svg">
<g clip-path="url(#clip0_6162_3525)">
<path d="M24.6504 26.3999L23.5504 25.3999L11.1504 33.7999C11.7504 33.9999 12.3504 34.1999 12.9504 34.2999L24.6504 26.3999Z" fill="#FFB130"/>
<path d="M22.4496 24.3999L21.1496 23.2L7.84961 32.2C8.34961 32.5 8.94961 32.8 9.54961 33.1L22.4496 24.3999Z" fill="#FFB130"/>
<path d="M3.55078 28.2C3.85078 28.6 4.15079 28.9999 4.45079 29.2999L17.8508 20.2L16.7508 19.2L3.55078 28.2Z" fill="#FFB130"/>
<path d="M20.2492 22.3001L18.9492 21.1001L5.44922 30.2001C5.84922 30.6001 6.34921 31.0001 6.74921 31.3001L20.2492 22.3001Z" fill="#FFB130"/>
<path d="M17.3496 34.7001L26.8496 28.3L25.7496 27.3L14.8496 34.6001C15.4496 34.7001 16.1496 34.7001 16.7496 34.7001C16.8496 34.7001 17.0496 34.7001 17.3496 34.7001Z" fill="#FFB130"/>
<path d="M33.15 18.3H17.75L29.35 28.8C31.65 26 33.15 22.3 33.15 18.3Z" fill="#FFB130"/>
<path d="M27.7504 29.2L20.1504 34.2999C23.3504 33.5999 26.1504 31.9999 28.3504 29.7999L27.7504 29.2Z" fill="#FFB130"/>
<path d="M0.25 18.2999C0.25 21.4999 1.15001 24.4999 2.85001 27.0999L17.15 17.4999L22.25 2.79993C20.55 2.19993 18.65 1.89993 16.75 1.89993C7.55 1.79993 0.25 9.19993 0.25 18.2999Z" fill="#FFB130"/>
<path d="M35.2504 11.8C33.9504 6.8 30.1504 2.7 25.2504 1L24.3504 3.7L20.1504 15.9H33.0504H35.8504C35.8504 14.5 35.6504 13.1 35.2504 11.8Z" fill="#FFB130"/>
</g>
<defs>
<clipPath id="clip0_6162_3525">
<rect width="35.6" height="35.6" fill="white" transform="translate(0.5)"/>
</clipPath>
</defs>
</svg>
